<?xml version="1.0" encoding="utf-8"?>
<!-- Generator: Adobe Illustrator 26.2.1, SVG Export Plug-In . SVG Version: 6.00 Build 0)  -->
<svg version="1.1" id="Layer_1" xmlns="http://www.w3.org/2000/svg" xmlns:xlink="http://www.w3.org/1999/xlink" x="0px" y="0px"
	 viewBox="0 0 26 26" style="enable-background:new 0 0 26 26;" xml:space="preserve">
<path style="fill-rule:evenodd;clip-rule:evenodd;fill:#D92E76;" d="M18.149,1.099c-2.903,0.164-4.842,2.022-5.242,2.455l0,0
	c-0.306-0.331-1.515-1.497-3.367-2.099l0,0c0.042,0.034,0.084,0.069,0.126,0.103l0,0c0.057,0.047,0.114,0.094,0.168,0.145l0,0
	c0.223,0.195,0.426,0.414,0.621,0.639l0,0c0.093,0.116,0.189,0.23,0.274,0.352l0,0c0.044,0.061,0.089,0.118,0.13,0.184l0,0
	c0.042,0.064,0.085,0.128,0.126,0.194l0,0c0.324,0.526,0.558,1.112,0.687,1.72l0,0c0.13,0.608,0.152,1.239,0.072,1.857l0,0
	c-0.081,0.617-0.265,1.223-0.552,1.779l0,0c-0.285,0.556-0.671,1.063-1.132,1.483l0,0c-0.164,0.148-0.373,0.315-0.555,0.439l0,0
	c-0.068,0.044-0.136,0.088-0.205,0.13l0,0c-0.279,0.165-0.577,0.297-0.885,0.392C7.8,11.065,7.14,11.098,6.516,10.989
	c-0.624-0.113-1.215-0.369-1.709-0.74l0,0c-0.248-0.184-0.473-0.395-0.67-0.624l0,0C4.038,9.51,3.947,9.391,3.861,9.268l0,0
	C3.818,9.207,3.778,9.137,3.738,9.072l0,0c-0.039-0.067-0.083-0.13-0.114-0.201l0,0c-0.033-0.07-0.067-0.139-0.1-0.208l0,0
	c-0.017-0.034-0.031-0.07-0.044-0.106l0,0C3.41,8.381,3.353,8.194,3.31,8.011l0,0C3.259,7.794,3.234,7.564,3.223,7.342l0,0
	C3.214,7.122,3.231,6.896,3.261,6.679l0,0C3.282,6.54,3.315,6.386,3.352,6.25l0,0c0.043-0.139,0.082-0.278,0.142-0.41l0,0
	c0.029-0.066,0.053-0.134,0.086-0.198l0,0c0.034-0.063,0.067-0.127,0.101-0.19l0,0C3.714,5.389,3.754,5.329,3.794,5.27l0,0
	c0.039-0.059,0.078-0.119,0.119-0.176l0,0c0.045-0.055,0.089-0.11,0.134-0.165l0,0c0.039-0.049,0.094-0.114,0.14-0.157l0,0
	c0.05-0.05,0.099-0.099,0.148-0.148l0,0c0.049-0.049,0.106-0.09,0.159-0.135l0,0C4.549,4.445,4.599,4.4,4.658,4.36l0,0
	c0.06-0.04,0.12-0.079,0.179-0.118l0,0C5.084,4.096,5.348,3.984,5.622,3.92c0.274-0.061,0.552-0.08,0.822-0.06
	c0.271,0.025,0.532,0.091,0.776,0.187c0.243,0.101,0.464,0.236,0.663,0.391l0,0C7.93,4.479,7.977,4.521,8.023,4.563l0,0
	c0.09,0.079,0.175,0.179,0.254,0.268l0,0C8.314,4.88,8.35,4.928,8.386,4.977l0,0c0.07,0.094,0.14,0.209,0.192,0.314l0,0
	C8.604,5.346,8.63,5.401,8.655,5.456l0,0c0.02,0.057,0.041,0.114,0.061,0.171l0,0C8.788,5.856,8.824,6.09,8.829,6.319l0,0
	c0,0.229-0.032,0.452-0.091,0.662l0,0c-0.06,0.21-0.152,0.405-0.26,0.583l0,0C8.366,7.741,8.231,7.896,8.085,8.03l0,0
	C8.047,8.063,8.008,8.092,7.97,8.123l0,0c-0.038,0.03-0.076,0.06-0.12,0.087l0,0C7.807,8.236,7.767,8.266,7.722,8.288
	C7.678,8.31,7.634,8.332,7.59,8.354C7.41,8.432,7.222,8.476,7.039,8.491C6.856,8.507,6.677,8.487,6.511,8.445
	C6.428,8.427,6.35,8.395,6.274,8.367C6.199,8.331,6.125,8.3,6.06,8.256l0,0C5.924,8.176,5.81,8.075,5.71,7.972l0,0
	C5.664,7.917,5.615,7.867,5.578,7.809l0,0C5.558,7.781,5.539,7.753,5.52,7.726l0,0C5.502,7.697,5.486,7.667,5.47,7.638l0,0
	c-0.032-0.055-0.058-0.12-0.082-0.179l0,0C5.369,7.398,5.347,7.34,5.337,7.28l0,0C5.308,7.163,5.303,7.048,5.303,6.942l0,0
	c0.007-0.214,0.063-0.396,0.132-0.539l0,0C5.47,6.332,5.511,6.271,5.548,6.217l0,0c0.042-0.052,0.079-0.098,0.12-0.133l0,0
	c0.019-0.018,0.037-0.035,0.055-0.05l0,0C5.742,6.02,5.76,6.007,5.776,5.995l0,0c0.017-0.011,0.032-0.021,0.046-0.03l0,0
	c0.015-0.008,0.029-0.014,0.041-0.019c0.05-0.021,0.079-0.025,0.089-0.012l0,0c0.023,0.029-0.046,0.11-0.131,0.269l0,0
	c-0.023,0.038-0.04,0.086-0.063,0.135l0,0C5.741,6.389,5.721,6.443,5.707,6.505l0,0C5.679,6.627,5.665,6.771,5.686,6.926l0,0
	c0.014,0.077,0.029,0.157,0.063,0.235l0,0C5.762,7.2,5.785,7.238,5.802,7.277l0,0c0.011,0.019,0.023,0.038,0.034,0.056l0,0
	c0.023,0.038,0.052,0.074,0.08,0.109l0,0C5.932,7.46,5.949,7.478,5.966,7.496l0,0c0.03,0.038,0.071,0.067,0.107,0.101l0,0
	C6.15,7.658,6.234,7.718,6.33,7.758c0.046,0.024,0.098,0.038,0.147,0.056c0.052,0.011,0.103,0.028,0.158,0.032
	c0.107,0.015,0.219,0.016,0.33-0.006c0.11-0.021,0.219-0.059,0.322-0.115c0.025-0.016,0.05-0.031,0.075-0.047l0,0
	c0.025-0.015,0.047-0.037,0.071-0.054l0,0c0.024-0.016,0.047-0.04,0.07-0.062l0,0c0.023-0.023,0.048-0.044,0.07-0.068l0,0
	C7.66,7.397,7.739,7.289,7.802,7.169l0,0c0.059-0.122,0.109-0.252,0.136-0.39l0,0C7.964,6.64,7.973,6.497,7.963,6.352l0,0
	C7.949,6.208,7.915,6.065,7.861,5.929l0,0C7.836,5.866,7.799,5.792,7.763,5.732l0,0C7.754,5.716,7.744,5.7,7.733,5.685l0,0
	c-0.052-0.08-0.117-0.154-0.179-0.227l0,0C7.525,5.43,7.496,5.403,7.467,5.375l0,0C7.413,5.319,7.345,5.273,7.284,5.223l0,0
	C7.151,5.135,7.008,5.06,6.856,5.007C6.702,4.959,6.542,4.929,6.379,4.923c-0.163,0-0.326,0.021-0.484,0.065
	C5.737,5.036,5.587,5.111,5.447,5.204l0,0C5.414,5.229,5.38,5.255,5.345,5.28l0,0C5.311,5.305,5.278,5.34,5.244,5.369l0,0
	c-0.033,0.032-0.07,0.059-0.099,0.094l0,0C5.112,5.5,5.039,5.58,5.008,5.617l0,0c-0.092,0.123-0.195,0.27-0.26,0.41l0,0
	C4.408,6.694,4.416,7.564,4.807,8.23l0,0c0.02,0.044,0.051,0.081,0.077,0.122l0,0c0.028,0.04,0.051,0.08,0.083,0.121l0,0
	c0.062,0.081,0.128,0.16,0.198,0.234l0,0c0.14,0.149,0.295,0.282,0.463,0.396l0,0c0.335,0.23,0.724,0.378,1.125,0.435
	c0.401,0.053,0.815,0.017,1.196-0.119c0.191-0.067,0.374-0.156,0.546-0.266l0,0C8.57,9.101,8.671,9.031,8.742,8.971l0,0
	c0.421-0.342,0.762-0.78,0.995-1.27l0,0c0.188-0.393,0.303-0.82,0.347-1.251l0,0C10.128,6.018,10.101,5.581,10,5.166l0,0
	C9.9,4.751,9.73,4.358,9.504,4.007l0,0C9.45,3.928,9.378,3.823,9.318,3.749l0,0C9.254,3.66,9.182,3.58,9.113,3.497l0,0
	c-0.146-0.159-0.293-0.315-0.457-0.45l0,0C8.616,3.011,8.575,2.978,8.533,2.946l0,0C8.491,2.913,8.451,2.879,8.408,2.848l0,0
	c-0.086-0.06-0.17-0.123-0.259-0.178l0,0C8.063,2.612,7.97,2.564,7.881,2.512C7.835,2.487,7.788,2.465,7.742,2.441
	c-0.41-0.206-0.858-0.342-1.299-0.408C6.246,2.006,6.05,1.989,5.855,1.988C5.66,1.989,5.466,1.996,5.277,2.024
	c-0.76,0.096-1.454,0.4-2.019,0.823l0,0C3.186,2.896,3.115,2.958,3.045,3.014l0,0C3.01,3.043,2.974,3.071,2.94,3.101l0,0
	c-0.034,0.03-0.067,0.06-0.1,0.091l0,0c-0.033,0.03-0.066,0.06-0.099,0.089l0,0C2.708,3.31,2.678,3.343,2.646,3.374l0,0
	C2.584,3.437,2.519,3.496,2.463,3.562l0,0C2.406,3.628,2.345,3.689,2.29,3.756l0,0C2.236,3.822,2.182,3.888,2.129,3.953l0,0
	c-0.05,0.068-0.1,0.135-0.149,0.202l0,0C1.93,4.221,1.887,4.291,1.84,4.358l0,0C1.662,4.632,1.506,4.918,1.371,5.212l0,0
	c-0.133,0.295-0.24,0.6-0.327,0.908l0,0C1.025,6.197,1,6.273,0.984,6.352l0,0C0.967,6.43,0.95,6.508,0.932,6.585l0,0
	C0.918,6.664,0.905,6.742,0.891,6.82l0,0C0.876,6.898,0.87,6.977,0.858,7.055l0,0C0.821,7.369,0.8,7.683,0.809,7.994l0,0
	c0.023,1.247,0.413,2.43,1.049,3.386l0,0c0.037,0.061,0.083,0.121,0.124,0.18l0,0c0.043,0.06,0.085,0.12,0.127,0.179l0,0
	c0.088,0.116,0.179,0.229,0.268,0.342l0,0c0.096,0.107,0.186,0.218,0.283,0.321l0,0c0.049,0.051,0.098,0.102,0.147,0.153l0,0
	c0.048,0.051,0.097,0.102,0.148,0.149l0,0c0.402,0.389,0.833,0.725,1.279,1.005l0,0c0.893,0.562,1.841,0.898,2.734,1.059
	c0.447,0.081,0.882,0.119,1.295,0.127c0.413,0.004,0.804-0.025,1.17-0.07c0.729-0.1,1.352-0.274,1.852-0.453
	c0.502-0.178,0.881-0.36,1.154-0.464c0.266-0.116,0.428-0.156,0.468-0.103l0,0c0.04,0.052-0.045,0.194-0.251,0.42l0,0
	c-0.214,0.214-0.552,0.513-1.05,0.816l0,0c-0.496,0.303-1.151,0.609-1.963,0.829c-0.406,0.105-0.85,0.191-1.328,0.236
	c-0.478,0.042-0.989,0.046-1.523-0.002c-1.067-0.097-2.232-0.415-3.352-1.03c-1.042-0.571-2.041-1.398-2.85-2.46l0,0
	c0.725,2.019,1.84,3.461,2.625,4.456l0,0c2.289,2.9,4.87,4.325,6.053,4.962c1.418,0.764,3.179,1.534,3.639,1.534
	c0.491,0,2.221-0.77,3.64-1.534c1.182-0.638,3.764-2.063,6.053-4.962l0,0c1.005-1.274,2.55-3.279,3.125-6.289l0,0
	c0.244-1.28,0.525-2.854-0.132-4.701l0,0c-0.864-2.426-2.73-3.626-3.166-3.891l0,0c-0.596-0.364-1.992-1.101-3.873-1.101
	C18.422,1.087,18.287,1.091,18.149,1.099L18.149,1.099z"/>
</svg>
